M48
;GenerationSoftware,Autodesk,EAGLE,9.1.3*%
;CreationDate,2019-07-30T05:44:54Z*%
FMAT,2
ICI,OFF
METRIC,TZ,000.000
T7C0.400
T6C0.450
T5C0.600
T4C0.700
T3C0.800
T2C1.016
T1C1.500
%
G90
M71
T1
X30908Y18542
X25908Y18542
T2
X44450Y43612
X44450Y40716
X47244Y43612
X47244Y40716
T3
X22098Y50546
X31242Y50546
X21082Y2286
X18542Y2286
X16002Y2286
X13462Y2286
X10922Y2286
X46482Y50546
X43942Y50546
X41402Y50546
X38862Y50546
X36322Y50546
X33782Y50546
X28702Y2286
X33782Y2286
X36322Y2286
X38862Y2286
X41402Y2286
X43942Y2286
X46482Y2286
X1778Y50546
X4318Y50546
X6858Y50546
X9398Y50546
X11938Y50546
X14478Y50546
X17018Y50546
X19558Y50546
X26162Y2286
X24638Y50546
X28702Y50546
X23622Y2286
T4
X24562Y28753
X23292Y28753
X24562Y30023
X23292Y30023
X24562Y31293
X23292Y31293
X24562Y32563
X23292Y32563
X24562Y33833
X23292Y33833
T5
X25908Y43688
T6
X15240Y39370
X11938Y22606
X10922Y21590
X36830Y39116
X23368Y44196
X20828Y39878
X8382Y41656
X23368Y47752
X21082Y29972
X27686Y46482
X12700Y39624
X4826Y25146
X9398Y16764
X20320Y28702
T7
X5588Y38354
X15951Y40208
X18491Y39954
X19812Y24638
X19279Y36957
M30