G75*
%MOIN*%
%OFA0B0*%
%FSLAX25Y25*%
%IPPOS*%
%LPD*%
%AMOC8*
5,1,8,0,0,1.08239X$1,22.5*
%
%ADD10C,0.06406*%
%ADD11C,0.07900*%
%ADD12C,0.04831*%
%ADD13R,0.09358X0.09358*%
%ADD14C,0.09555*%
%ADD15C,0.03272*%
%ADD16C,0.04043*%
%ADD17C,0.03075*%
D10*
X0116595Y0078980D02*
X0116595Y0084886D01*
X0126595Y0084886D02*
X0126595Y0078980D01*
X0136595Y0078980D02*
X0136595Y0084886D01*
X0146595Y0084886D02*
X0146595Y0078980D01*
X0156595Y0078980D02*
X0156595Y0084886D01*
X0166595Y0084886D02*
X0166595Y0078980D01*
X0176595Y0078980D02*
X0176595Y0084886D01*
X0186595Y0084886D02*
X0186595Y0078980D01*
X0206595Y0078980D02*
X0206595Y0084886D01*
X0216595Y0084886D02*
X0216595Y0078980D01*
X0226595Y0078980D02*
X0226595Y0084886D01*
X0236595Y0084886D02*
X0236595Y0078980D01*
X0246595Y0078980D02*
X0246595Y0084886D01*
X0256595Y0084886D02*
X0256595Y0078980D01*
X0256595Y0268980D02*
X0256595Y0274886D01*
X0246595Y0274886D02*
X0246595Y0268980D01*
X0236595Y0268980D02*
X0236595Y0274886D01*
X0226595Y0274886D02*
X0226595Y0268980D01*
X0216595Y0268980D02*
X0216595Y0274886D01*
X0206595Y0274886D02*
X0206595Y0268980D01*
X0196595Y0268980D02*
X0196595Y0274886D01*
X0186595Y0274886D02*
X0186595Y0268980D01*
X0170595Y0268980D02*
X0170595Y0274886D01*
X0160595Y0274886D02*
X0160595Y0268980D01*
X0150595Y0268980D02*
X0150595Y0274886D01*
X0140595Y0274886D02*
X0140595Y0268980D01*
X0130595Y0268980D02*
X0130595Y0274886D01*
X0120595Y0274886D02*
X0120595Y0268980D01*
X0110595Y0268980D02*
X0110595Y0274886D01*
X0100595Y0274886D02*
X0100595Y0268980D01*
X0090595Y0268980D02*
X0090595Y0274886D01*
X0080595Y0274886D02*
X0080595Y0268980D01*
D11*
X0248595Y0244633D03*
X0259595Y0244633D03*
X0259595Y0233233D03*
X0248595Y0233233D03*
D12*
X0170295Y0206133D03*
X0165295Y0206133D03*
X0165295Y0201133D03*
X0165295Y0196133D03*
X0165295Y0191133D03*
X0165295Y0186133D03*
X0170295Y0186133D03*
X0170295Y0191133D03*
X0170295Y0196133D03*
X0170295Y0201133D03*
D13*
X0175595Y0145933D03*
D14*
X0195280Y0145933D03*
D15*
X0153595Y0185933D03*
X0156595Y0190933D03*
X0120595Y0161933D03*
X0116595Y0157933D03*
X0110595Y0138933D03*
X0092595Y0171933D03*
X0123595Y0228933D03*
X0133595Y0227933D03*
X0155595Y0229933D03*
X0165595Y0246933D03*
X0165595Y0260933D03*
X0182595Y0255933D03*
X0218595Y0226933D03*
X0106595Y0236933D03*
D16*
X0175595Y0244933D03*
D17*
X0146395Y0230233D03*
X0136395Y0231233D03*
X0149495Y0218433D03*
X0151595Y0169933D03*
X0095595Y0223933D03*
M02*
