G75*
%MOIN*%
%OFA0B0*%
%FSLAX25Y25*%
%IPPOS*%
%LPD*%
%AMOC8*
5,1,8,0,0,1.08239X$1,22.5*
%
%ADD10C,0.00000*%
%ADD11C,0.00800*%
D10*
X0078532Y0071933D02*
X0262658Y0071933D01*
X0262782Y0071935D01*
X0262905Y0071941D01*
X0263029Y0071950D01*
X0263151Y0071964D01*
X0263274Y0071981D01*
X0263396Y0072003D01*
X0263517Y0072028D01*
X0263637Y0072057D01*
X0263756Y0072089D01*
X0263875Y0072126D01*
X0263992Y0072166D01*
X0264107Y0072209D01*
X0264222Y0072257D01*
X0264334Y0072308D01*
X0264445Y0072362D01*
X0264555Y0072420D01*
X0264662Y0072481D01*
X0264768Y0072546D01*
X0264871Y0072614D01*
X0264972Y0072685D01*
X0265071Y0072759D01*
X0265168Y0072836D01*
X0265262Y0072917D01*
X0265353Y0073000D01*
X0265442Y0073086D01*
X0265528Y0073175D01*
X0265611Y0073266D01*
X0265692Y0073360D01*
X0265769Y0073457D01*
X0265843Y0073556D01*
X0265914Y0073657D01*
X0265982Y0073760D01*
X0266047Y0073866D01*
X0266108Y0073973D01*
X0266166Y0074083D01*
X0266220Y0074194D01*
X0266271Y0074306D01*
X0266319Y0074421D01*
X0266362Y0074536D01*
X0266402Y0074653D01*
X0266439Y0074772D01*
X0266471Y0074891D01*
X0266500Y0075011D01*
X0266525Y0075132D01*
X0266547Y0075254D01*
X0266564Y0075377D01*
X0266578Y0075499D01*
X0266587Y0075623D01*
X0266593Y0075746D01*
X0266595Y0075870D01*
X0266595Y0081933D01*
X0276595Y0091933D01*
X0276595Y0125933D01*
X0276595Y0126933D01*
X0272595Y0130933D01*
X0271595Y0130933D01*
X0212595Y0130933D01*
X0210595Y0132933D01*
X0210595Y0133933D01*
X0210595Y0161933D01*
X0212595Y0163933D01*
X0272595Y0163933D01*
X0276595Y0167933D01*
X0276595Y0223933D01*
X0266595Y0233933D01*
X0266595Y0275933D01*
X0260595Y0281933D01*
X0078532Y0281870D01*
X0078408Y0281868D01*
X0078285Y0281862D01*
X0078161Y0281853D01*
X0078039Y0281839D01*
X0077916Y0281822D01*
X0077794Y0281800D01*
X0077673Y0281775D01*
X0077553Y0281746D01*
X0077434Y0281714D01*
X0077315Y0281677D01*
X0077198Y0281637D01*
X0077083Y0281594D01*
X0076968Y0281546D01*
X0076856Y0281495D01*
X0076745Y0281441D01*
X0076635Y0281383D01*
X0076528Y0281322D01*
X0076422Y0281257D01*
X0076319Y0281189D01*
X0076218Y0281118D01*
X0076119Y0281044D01*
X0076022Y0280967D01*
X0075928Y0280886D01*
X0075837Y0280803D01*
X0075748Y0280717D01*
X0075662Y0280628D01*
X0075579Y0280537D01*
X0075498Y0280443D01*
X0075421Y0280346D01*
X0075347Y0280247D01*
X0075276Y0280146D01*
X0075208Y0280043D01*
X0075143Y0279937D01*
X0075082Y0279830D01*
X0075024Y0279720D01*
X0074970Y0279609D01*
X0074919Y0279497D01*
X0074871Y0279382D01*
X0074828Y0279267D01*
X0074788Y0279150D01*
X0074751Y0279031D01*
X0074719Y0278912D01*
X0074690Y0278792D01*
X0074665Y0278671D01*
X0074643Y0278549D01*
X0074626Y0278426D01*
X0074612Y0278304D01*
X0074603Y0278180D01*
X0074597Y0278057D01*
X0074595Y0277933D01*
X0074595Y0075933D01*
X0074596Y0075809D01*
X0074601Y0075684D01*
X0074610Y0075560D01*
X0074622Y0075436D01*
X0074639Y0075312D01*
X0074660Y0075189D01*
X0074684Y0075067D01*
X0074712Y0074945D01*
X0074744Y0074825D01*
X0074780Y0074706D01*
X0074819Y0074587D01*
X0074862Y0074470D01*
X0074909Y0074355D01*
X0074959Y0074241D01*
X0075013Y0074128D01*
X0075071Y0074018D01*
X0075132Y0073909D01*
X0075196Y0073802D01*
X0075264Y0073697D01*
X0075335Y0073595D01*
X0075409Y0073494D01*
X0075486Y0073396D01*
X0075566Y0073301D01*
X0075649Y0073208D01*
X0075735Y0073118D01*
X0075824Y0073030D01*
X0075916Y0072946D01*
X0076010Y0072864D01*
X0076107Y0072785D01*
X0076206Y0072710D01*
X0076307Y0072637D01*
X0076411Y0072568D01*
X0076517Y0072502D01*
X0076624Y0072439D01*
X0076734Y0072380D01*
X0076846Y0072324D01*
X0076959Y0072272D01*
X0077074Y0072223D01*
X0077190Y0072178D01*
X0077308Y0072137D01*
X0077426Y0072100D01*
X0077546Y0072066D01*
X0077667Y0072036D01*
X0077789Y0072009D01*
X0077912Y0071987D01*
X0078035Y0071968D01*
X0078159Y0071954D01*
X0078283Y0071943D01*
X0078408Y0071936D01*
X0078533Y0071933D01*
D11*
X0184636Y0202333D02*
X0184636Y0206537D01*
X0186037Y0205135D01*
X0187438Y0206537D01*
X0187438Y0202333D01*
X0189240Y0204435D02*
X0189940Y0203734D01*
X0192042Y0203734D01*
X0192042Y0202333D02*
X0192042Y0206537D01*
X0189940Y0206537D01*
X0189240Y0205836D01*
X0189240Y0204435D01*
X0198448Y0203734D02*
X0199148Y0204435D01*
X0201250Y0204435D01*
X0201250Y0203034D01*
X0200549Y0202333D01*
X0199148Y0202333D01*
X0198448Y0203034D01*
X0198448Y0203734D01*
X0199849Y0205836D02*
X0201250Y0204435D01*
X0199849Y0205836D02*
X0198448Y0206537D01*
X0203052Y0205836D02*
X0205854Y0203034D01*
X0205153Y0202333D01*
X0203752Y0202333D01*
X0203052Y0203034D01*
X0203052Y0205836D01*
X0203752Y0206537D01*
X0205153Y0206537D01*
X0205854Y0205836D01*
X0205854Y0203034D01*
X0207455Y0203034D02*
X0207455Y0202333D01*
X0208156Y0202333D01*
X0208156Y0203034D01*
X0207455Y0203034D01*
X0207455Y0204435D02*
X0208156Y0204435D01*
X0208156Y0205135D01*
X0207455Y0205135D01*
X0207455Y0204435D01*
X0209957Y0202333D02*
X0212760Y0202333D01*
X0211359Y0202333D02*
X0211359Y0206537D01*
X0212760Y0205135D01*
X0214561Y0202333D02*
X0217364Y0202333D01*
X0215963Y0202333D02*
X0215963Y0206537D01*
X0217364Y0205135D01*
X0223769Y0204435D02*
X0225871Y0204435D01*
X0226572Y0205135D01*
X0226572Y0205836D01*
X0225871Y0206537D01*
X0224470Y0206537D01*
X0223769Y0205836D01*
X0223769Y0203034D01*
X0224470Y0202333D01*
X0225871Y0202333D01*
X0226572Y0203034D01*
X0228373Y0202333D02*
X0231176Y0202333D01*
X0229774Y0202333D02*
X0229774Y0206537D01*
X0231176Y0205135D01*
X0232977Y0206537D02*
X0235779Y0202333D01*
X0237581Y0203034D02*
X0238282Y0202333D01*
X0239683Y0202333D01*
X0240383Y0203034D01*
X0239683Y0204435D02*
X0237581Y0204435D01*
X0237581Y0205836D02*
X0238282Y0206537D01*
X0239683Y0206537D01*
X0240383Y0205836D01*
X0240383Y0205135D01*
X0239683Y0204435D01*
X0237581Y0203034D02*
X0237581Y0205836D01*
X0242185Y0205836D02*
X0242885Y0206537D01*
X0244287Y0206537D01*
X0244987Y0205836D01*
X0246789Y0206537D02*
X0249591Y0202333D01*
X0251393Y0205836D02*
X0254195Y0203034D01*
X0254195Y0202333D01*
X0251393Y0205836D02*
X0251393Y0206537D01*
X0254195Y0206537D01*
X0254195Y0214333D02*
X0252093Y0214333D01*
X0251393Y0215034D01*
X0251393Y0217836D01*
X0252093Y0218537D01*
X0254195Y0218537D01*
X0254195Y0214333D01*
X0249591Y0215034D02*
X0249591Y0216435D01*
X0248891Y0217135D01*
X0247489Y0217135D01*
X0246789Y0216435D01*
X0246789Y0215734D01*
X0249591Y0215734D01*
X0249591Y0215034D02*
X0248891Y0214333D01*
X0247489Y0214333D01*
X0244987Y0214333D02*
X0242885Y0214333D01*
X0242185Y0215034D01*
X0242885Y0215734D01*
X0244287Y0215734D01*
X0244987Y0216435D01*
X0244287Y0217135D01*
X0242185Y0217135D01*
X0240383Y0217135D02*
X0239683Y0217135D01*
X0239683Y0214333D01*
X0240383Y0214333D02*
X0238982Y0214333D01*
X0237314Y0215034D02*
X0236613Y0214333D01*
X0234512Y0214333D01*
X0234512Y0213632D02*
X0234512Y0217135D01*
X0236613Y0217135D01*
X0237314Y0216435D01*
X0237314Y0215034D01*
X0235913Y0212932D02*
X0235212Y0212932D01*
X0234512Y0213632D01*
X0232710Y0214333D02*
X0232710Y0217135D01*
X0230608Y0217135D01*
X0229908Y0216435D01*
X0229908Y0214333D01*
X0228106Y0214333D02*
X0228106Y0215034D01*
X0227406Y0215034D01*
X0227406Y0214333D01*
X0228106Y0214333D01*
X0228106Y0216435D02*
X0227406Y0216435D01*
X0227406Y0217135D01*
X0228106Y0217135D01*
X0228106Y0216435D01*
X0225871Y0220333D02*
X0223769Y0220333D01*
X0221968Y0221034D02*
X0221968Y0223135D01*
X0223769Y0223135D02*
X0225871Y0223135D01*
X0226572Y0222435D01*
X0226572Y0221034D01*
X0225871Y0220333D01*
X0228306Y0223135D02*
X0229007Y0223135D01*
X0230408Y0221734D01*
X0230408Y0220333D02*
X0230408Y0223135D01*
X0232777Y0223135D02*
X0232777Y0220333D01*
X0233477Y0220333D02*
X0232076Y0220333D01*
X0232777Y0223135D02*
X0233477Y0223135D01*
X0232777Y0224537D02*
X0232777Y0225237D01*
X0232977Y0226333D02*
X0232977Y0228435D01*
X0233678Y0229135D01*
X0235079Y0229135D01*
X0235779Y0228435D01*
X0237581Y0227734D02*
X0237581Y0227034D01*
X0238282Y0226333D01*
X0239683Y0226333D01*
X0240383Y0227034D01*
X0239683Y0228435D02*
X0238282Y0228435D01*
X0237581Y0227734D01*
X0237581Y0229836D02*
X0238282Y0230537D01*
X0239683Y0230537D01*
X0240383Y0229836D01*
X0240383Y0229135D01*
X0239683Y0228435D01*
X0235779Y0230537D02*
X0235779Y0226333D01*
X0235980Y0224537D02*
X0237381Y0224537D01*
X0238081Y0223836D01*
X0238081Y0221034D01*
X0237381Y0220333D01*
X0235980Y0220333D01*
X0235279Y0221034D01*
X0235279Y0223836D02*
X0235980Y0224537D01*
X0231176Y0226333D02*
X0229774Y0226333D01*
X0230475Y0226333D02*
X0230475Y0229135D01*
X0231176Y0229135D01*
X0230475Y0230537D02*
X0230475Y0231237D01*
X0228106Y0228435D02*
X0227406Y0229135D01*
X0226004Y0229135D01*
X0225304Y0228435D01*
X0225304Y0227734D01*
X0228106Y0227734D01*
X0228106Y0227034D02*
X0228106Y0228435D01*
X0228106Y0227034D02*
X0227406Y0226333D01*
X0226004Y0226333D01*
X0223502Y0226333D02*
X0222101Y0226333D01*
X0222802Y0226333D02*
X0222802Y0230537D01*
X0223502Y0230537D01*
X0220433Y0228435D02*
X0219732Y0229135D01*
X0217631Y0229135D01*
X0217631Y0230537D02*
X0217631Y0226333D01*
X0219732Y0226333D01*
X0220433Y0227034D01*
X0220433Y0228435D01*
X0216663Y0225237D02*
X0216663Y0224537D01*
X0216663Y0223135D02*
X0216663Y0220333D01*
X0215963Y0220333D02*
X0217364Y0220333D01*
X0219165Y0220333D02*
X0219165Y0223135D01*
X0217364Y0223135D02*
X0216663Y0223135D01*
X0214294Y0223135D02*
X0212893Y0223135D01*
X0213594Y0223836D02*
X0213594Y0221034D01*
X0212893Y0220333D01*
X0211225Y0220333D02*
X0211225Y0224537D01*
X0209123Y0224537D01*
X0208423Y0223836D01*
X0208423Y0222435D01*
X0209123Y0221734D01*
X0211225Y0221734D01*
X0211292Y0217135D02*
X0209190Y0217135D01*
X0209891Y0215734D02*
X0211292Y0215734D01*
X0211993Y0216435D01*
X0211292Y0217135D01*
X0209891Y0215734D02*
X0209190Y0215034D01*
X0209891Y0214333D01*
X0211993Y0214333D01*
X0213794Y0215034D02*
X0213794Y0216435D01*
X0214495Y0217135D01*
X0215896Y0217135D01*
X0216596Y0216435D01*
X0216596Y0215034D01*
X0215896Y0214333D01*
X0214495Y0214333D01*
X0213794Y0215034D01*
X0219099Y0215034D02*
X0219099Y0218537D01*
X0219799Y0218537D02*
X0218398Y0218537D01*
X0219165Y0220333D02*
X0221267Y0220333D01*
X0221968Y0221034D01*
X0221200Y0215034D02*
X0220500Y0214333D01*
X0219799Y0214333D01*
X0219099Y0215034D01*
X0207389Y0214333D02*
X0205987Y0214333D01*
X0206688Y0214333D02*
X0206688Y0217135D01*
X0207389Y0217135D01*
X0206688Y0218537D02*
X0206688Y0219237D01*
X0205921Y0220333D02*
X0203819Y0220333D01*
X0203819Y0219632D02*
X0204519Y0218932D01*
X0205220Y0218932D01*
X0203819Y0219632D02*
X0203819Y0223135D01*
X0202017Y0223135D02*
X0200616Y0223135D01*
X0201317Y0223836D02*
X0201317Y0221034D01*
X0200616Y0220333D01*
X0198948Y0220333D02*
X0198948Y0224537D01*
X0198247Y0223135D02*
X0196846Y0223135D01*
X0196146Y0222435D01*
X0196146Y0220333D01*
X0194344Y0221034D02*
X0193644Y0220333D01*
X0192242Y0220333D01*
X0191542Y0221034D01*
X0191542Y0222435D01*
X0192242Y0223135D01*
X0193644Y0223135D01*
X0194344Y0222435D01*
X0194344Y0221034D01*
X0198247Y0223135D02*
X0198948Y0222435D01*
X0199715Y0218537D02*
X0199715Y0214333D01*
X0201517Y0214333D02*
X0201517Y0216435D01*
X0202218Y0217135D01*
X0203619Y0217135D01*
X0203619Y0215734D02*
X0201517Y0215734D01*
X0201517Y0214333D02*
X0203619Y0214333D01*
X0204319Y0215034D01*
X0203619Y0215734D01*
X0199715Y0216435D02*
X0199015Y0217135D01*
X0197614Y0217135D01*
X0196913Y0216435D01*
X0196913Y0214333D01*
X0190508Y0214333D02*
X0190508Y0218537D01*
X0189740Y0220333D02*
X0189740Y0223135D01*
X0187638Y0223135D01*
X0186938Y0222435D01*
X0186938Y0220333D01*
X0187705Y0218537D02*
X0187705Y0214333D01*
X0185904Y0215034D02*
X0185904Y0216435D01*
X0185203Y0217135D01*
X0183802Y0217135D01*
X0183101Y0216435D01*
X0183101Y0215734D01*
X0185904Y0215734D01*
X0185904Y0215034D02*
X0185203Y0214333D01*
X0183802Y0214333D01*
X0181300Y0214333D02*
X0179198Y0214333D01*
X0178497Y0215034D01*
X0179198Y0215734D01*
X0180599Y0215734D01*
X0181300Y0216435D01*
X0180599Y0217135D01*
X0178497Y0217135D01*
X0176696Y0217135D02*
X0175295Y0217135D01*
X0175995Y0217836D02*
X0175995Y0215034D01*
X0175295Y0214333D01*
X0173626Y0215034D02*
X0173626Y0216435D01*
X0172926Y0217135D01*
X0171525Y0217135D01*
X0170824Y0216435D01*
X0170824Y0215734D01*
X0173626Y0215734D01*
X0173626Y0215034D02*
X0172926Y0214333D01*
X0171525Y0214333D01*
X0169023Y0214333D02*
X0169023Y0217135D01*
X0169023Y0215734D02*
X0167621Y0217135D01*
X0166921Y0217135D01*
X0187705Y0216435D02*
X0190508Y0216435D01*
X0190007Y0226333D02*
X0190007Y0229135D01*
X0191408Y0230537D01*
X0192809Y0229135D01*
X0192809Y0226333D01*
X0192809Y0228435D02*
X0190007Y0228435D01*
X0188206Y0227034D02*
X0188206Y0226333D01*
X0187505Y0226333D01*
X0187505Y0227034D01*
X0188206Y0227034D01*
X0199215Y0229135D02*
X0200616Y0226333D01*
X0202017Y0229135D01*
X0203819Y0228435D02*
X0203819Y0227734D01*
X0206621Y0227734D01*
X0206621Y0227034D02*
X0206621Y0228435D01*
X0205921Y0229135D01*
X0204519Y0229135D01*
X0203819Y0228435D01*
X0204519Y0226333D02*
X0205921Y0226333D01*
X0206621Y0227034D01*
X0208423Y0226333D02*
X0209824Y0227734D01*
X0209123Y0227734D02*
X0211225Y0227734D01*
X0211225Y0226333D02*
X0211225Y0230537D01*
X0209123Y0230537D01*
X0208423Y0229836D01*
X0208423Y0228435D01*
X0209123Y0227734D01*
X0206621Y0223135D02*
X0206621Y0221034D01*
X0205921Y0220333D01*
X0239683Y0219237D02*
X0239683Y0218537D01*
X0246522Y0220333D02*
X0246522Y0223135D01*
X0246522Y0221734D02*
X0245121Y0223135D01*
X0244420Y0223135D01*
X0248323Y0222435D02*
X0249024Y0223135D01*
X0250425Y0223135D01*
X0251126Y0222435D01*
X0251126Y0221034D01*
X0250425Y0220333D01*
X0249024Y0220333D01*
X0248323Y0221034D01*
X0248323Y0222435D01*
X0249591Y0226333D02*
X0249591Y0230537D01*
X0251393Y0230537D02*
X0254195Y0230537D01*
X0254195Y0226333D01*
X0251393Y0226333D01*
X0252794Y0224537D02*
X0253495Y0223836D01*
X0253495Y0220333D01*
X0254195Y0222435D02*
X0252794Y0222435D01*
X0246789Y0226333D02*
X0246789Y0230537D01*
X0246789Y0228435D02*
X0249591Y0228435D01*
X0252794Y0228435D02*
X0254195Y0228435D01*
X0242185Y0205836D02*
X0242185Y0205135D01*
X0244987Y0202333D01*
X0242185Y0202333D01*
M02*
