G75*
%MOIN*%
%OFA0B0*%
%FSLAX25Y25*%
%IPPOS*%
%LPD*%
%AMOC8*
5,1,8,0,0,1.08239X$1,22.5*
%
%ADD10C,0.06406*%
%ADD11C,0.01700*%
%ADD12R,0.03256X0.02075*%
%ADD13R,0.04240X0.04240*%
%ADD14R,0.05224X0.03650*%
%ADD15R,0.02980X0.03768*%
%ADD16R,0.02075X0.03256*%
%ADD17R,0.02862X0.04831*%
%ADD18R,0.04437X0.02469*%
%ADD19C,0.07900*%
%ADD20C,0.01575*%
%ADD21R,0.06890X0.06890*%
%ADD22R,0.02756X0.01575*%
%ADD23R,0.01575X0.02756*%
%ADD24R,0.10343X0.24122*%
%ADD25C,0.04831*%
%ADD26R,0.05421X0.02862*%
%ADD27R,0.09358X0.09358*%
%ADD28C,0.09555*%
%ADD29C,0.03272*%
%ADD30C,0.04043*%
%ADD31C,0.03075*%
D10*
X0116595Y0078980D02*
X0116595Y0084886D01*
X0126595Y0084886D02*
X0126595Y0078980D01*
X0136595Y0078980D02*
X0136595Y0084886D01*
X0146595Y0084886D02*
X0146595Y0078980D01*
X0156595Y0078980D02*
X0156595Y0084886D01*
X0166595Y0084886D02*
X0166595Y0078980D01*
X0176595Y0078980D02*
X0176595Y0084886D01*
X0186595Y0084886D02*
X0186595Y0078980D01*
X0206595Y0078980D02*
X0206595Y0084886D01*
X0216595Y0084886D02*
X0216595Y0078980D01*
X0226595Y0078980D02*
X0226595Y0084886D01*
X0236595Y0084886D02*
X0236595Y0078980D01*
X0246595Y0078980D02*
X0246595Y0084886D01*
X0256595Y0084886D02*
X0256595Y0078980D01*
X0256595Y0268980D02*
X0256595Y0274886D01*
X0246595Y0274886D02*
X0246595Y0268980D01*
X0236595Y0268980D02*
X0236595Y0274886D01*
X0226595Y0274886D02*
X0226595Y0268980D01*
X0216595Y0268980D02*
X0216595Y0274886D01*
X0206595Y0274886D02*
X0206595Y0268980D01*
X0196595Y0268980D02*
X0196595Y0274886D01*
X0186595Y0274886D02*
X0186595Y0268980D01*
X0170595Y0268980D02*
X0170595Y0274886D01*
X0160595Y0274886D02*
X0160595Y0268980D01*
X0150595Y0268980D02*
X0150595Y0274886D01*
X0140595Y0274886D02*
X0140595Y0268980D01*
X0130595Y0268980D02*
X0130595Y0274886D01*
X0120595Y0274886D02*
X0120595Y0268980D01*
X0110595Y0268980D02*
X0110595Y0274886D01*
X0100595Y0274886D02*
X0100595Y0268980D01*
X0090595Y0268980D02*
X0090595Y0274886D01*
X0080595Y0274886D02*
X0080595Y0268980D01*
D11*
X0101894Y0223659D02*
X0101894Y0219159D01*
X0103863Y0219159D02*
X0103863Y0223659D01*
X0105831Y0223659D02*
X0105831Y0219159D01*
X0107800Y0219159D02*
X0107800Y0223659D01*
X0109768Y0223659D02*
X0109768Y0219159D01*
X0111737Y0219159D02*
X0111737Y0223659D01*
X0113705Y0223659D02*
X0113705Y0219159D01*
X0115674Y0219159D02*
X0115674Y0223659D01*
X0117642Y0223659D02*
X0117642Y0219159D01*
X0119611Y0219159D02*
X0119611Y0223659D01*
X0121579Y0223659D02*
X0121579Y0219159D01*
X0123548Y0219159D02*
X0123548Y0223659D01*
X0125516Y0223659D02*
X0125516Y0219159D01*
X0127485Y0219159D02*
X0127485Y0223659D01*
X0129453Y0223659D02*
X0129453Y0219159D01*
X0131422Y0219159D02*
X0131422Y0223659D01*
X0133390Y0223659D02*
X0133390Y0219159D01*
X0135359Y0219159D02*
X0135359Y0223659D01*
X0137327Y0223659D02*
X0137327Y0219159D01*
X0139296Y0219159D02*
X0139296Y0223659D01*
X0144822Y0213634D02*
X0149322Y0213634D01*
X0149322Y0211665D02*
X0144822Y0211665D01*
X0144822Y0209697D02*
X0149322Y0209697D01*
X0149322Y0207728D02*
X0144822Y0207728D01*
X0144822Y0205760D02*
X0149322Y0205760D01*
X0149322Y0203791D02*
X0144822Y0203791D01*
X0144822Y0201823D02*
X0149322Y0201823D01*
X0149322Y0199854D02*
X0144822Y0199854D01*
X0144822Y0197886D02*
X0149322Y0197886D01*
X0149322Y0195917D02*
X0144822Y0195917D01*
X0144822Y0193949D02*
X0149322Y0193949D01*
X0149322Y0191980D02*
X0144822Y0191980D01*
X0144822Y0190012D02*
X0149322Y0190012D01*
X0149322Y0188043D02*
X0144822Y0188043D01*
X0144822Y0186075D02*
X0149322Y0186075D01*
X0149322Y0184106D02*
X0144822Y0184106D01*
X0144822Y0182138D02*
X0149322Y0182138D01*
X0149322Y0180169D02*
X0144822Y0180169D01*
X0144822Y0178201D02*
X0149322Y0178201D01*
X0149322Y0176232D02*
X0144822Y0176232D01*
X0139296Y0170707D02*
X0139296Y0166207D01*
X0137327Y0166207D02*
X0137327Y0170707D01*
X0135359Y0170707D02*
X0135359Y0166207D01*
X0133390Y0166207D02*
X0133390Y0170707D01*
X0131422Y0170707D02*
X0131422Y0166207D01*
X0129453Y0166207D02*
X0129453Y0170707D01*
X0127485Y0170707D02*
X0127485Y0166207D01*
X0125516Y0166207D02*
X0125516Y0170707D01*
X0123548Y0170707D02*
X0123548Y0166207D01*
X0121579Y0166207D02*
X0121579Y0170707D01*
X0119611Y0170707D02*
X0119611Y0166207D01*
X0117642Y0166207D02*
X0117642Y0170707D01*
X0115674Y0170707D02*
X0115674Y0166207D01*
X0113705Y0166207D02*
X0113705Y0170707D01*
X0111737Y0170707D02*
X0111737Y0166207D01*
X0109768Y0166207D02*
X0109768Y0170707D01*
X0107800Y0170707D02*
X0107800Y0166207D01*
X0105831Y0166207D02*
X0105831Y0170707D01*
X0103863Y0170707D02*
X0103863Y0166207D01*
X0101894Y0166207D02*
X0101894Y0170707D01*
X0096369Y0176232D02*
X0091869Y0176232D01*
X0091869Y0178201D02*
X0096369Y0178201D01*
X0096369Y0180169D02*
X0091869Y0180169D01*
X0091869Y0182138D02*
X0096369Y0182138D01*
X0096369Y0184106D02*
X0091869Y0184106D01*
X0091869Y0186075D02*
X0096369Y0186075D01*
X0096369Y0188043D02*
X0091869Y0188043D01*
X0091869Y0190012D02*
X0096369Y0190012D01*
X0096369Y0191980D02*
X0091869Y0191980D01*
X0091869Y0193949D02*
X0096369Y0193949D01*
X0096369Y0195917D02*
X0091869Y0195917D01*
X0091869Y0197886D02*
X0096369Y0197886D01*
X0096369Y0199854D02*
X0091869Y0199854D01*
X0091869Y0201823D02*
X0096369Y0201823D01*
X0096369Y0203791D02*
X0091869Y0203791D01*
X0091869Y0205760D02*
X0096369Y0205760D01*
X0096369Y0207728D02*
X0091869Y0207728D01*
X0091869Y0209697D02*
X0096369Y0209697D01*
X0096369Y0211665D02*
X0091869Y0211665D01*
X0091869Y0213634D02*
X0096369Y0213634D01*
D12*
X0146249Y0234374D03*
X0146249Y0239492D03*
X0152942Y0239492D03*
X0152942Y0236933D03*
X0152942Y0234374D03*
D13*
X0160595Y0235980D03*
X0160595Y0241886D03*
X0167595Y0241886D03*
X0167595Y0235980D03*
X0175195Y0234686D03*
X0175195Y0228780D03*
X0167895Y0226386D03*
X0167895Y0220480D03*
X0161195Y0220580D03*
X0161195Y0226486D03*
X0154048Y0222933D03*
X0148142Y0222933D03*
X0195595Y0234980D03*
X0195595Y0240886D03*
X0201595Y0240886D03*
X0207642Y0245933D03*
X0213548Y0245933D03*
X0220595Y0244886D03*
X0220595Y0238980D03*
X0201595Y0234980D03*
X0146695Y0168186D03*
X0146695Y0162280D03*
X0132648Y0155333D03*
X0126742Y0155333D03*
X0084595Y0167980D03*
X0084595Y0173886D03*
X0084595Y0188980D03*
X0084595Y0194886D03*
X0085642Y0219933D03*
X0091548Y0219933D03*
D14*
X0132595Y0148476D03*
X0132595Y0141390D03*
X0237195Y0236590D03*
X0237195Y0243676D03*
D15*
X0241123Y0256933D03*
X0232068Y0256933D03*
D16*
X0213154Y0237280D03*
X0210595Y0237280D03*
X0208036Y0237280D03*
X0208036Y0230587D03*
X0213154Y0230587D03*
D17*
X0188135Y0234018D03*
X0184395Y0234018D03*
X0180655Y0234018D03*
X0180655Y0244648D03*
X0188135Y0244648D03*
D18*
X0085395Y0183498D03*
X0085395Y0179168D03*
D19*
X0248595Y0233233D03*
X0259595Y0233233D03*
X0259595Y0244633D03*
X0248595Y0244633D03*
D20*
X0122320Y0149886D03*
X0122320Y0147917D03*
X0122320Y0145949D03*
X0122320Y0143980D03*
X0120548Y0142209D03*
X0118579Y0142209D03*
X0116611Y0142209D03*
X0114642Y0142209D03*
X0112871Y0143980D03*
X0112871Y0145949D03*
X0112871Y0147917D03*
X0112871Y0149886D03*
X0114642Y0151657D03*
X0116611Y0151657D03*
X0118579Y0151657D03*
X0120548Y0151657D03*
D21*
X0117595Y0146933D03*
D22*
X0111493Y0145949D03*
X0111493Y0147917D03*
X0111493Y0149886D03*
X0111493Y0143980D03*
X0123698Y0143980D03*
X0123698Y0145949D03*
X0123698Y0147917D03*
X0123698Y0149886D03*
D23*
X0120548Y0153035D03*
X0118579Y0153035D03*
X0116611Y0153035D03*
X0114642Y0153035D03*
X0114642Y0140831D03*
X0116611Y0140831D03*
X0118579Y0140831D03*
X0120548Y0140831D03*
D24*
X0185438Y0180933D03*
X0185438Y0211933D03*
X0265753Y0211933D03*
X0265753Y0180933D03*
D25*
X0170295Y0186133D03*
X0170295Y0191133D03*
X0165295Y0191133D03*
X0165295Y0186133D03*
X0165295Y0196133D03*
X0165295Y0201133D03*
X0165295Y0206133D03*
X0170295Y0206133D03*
X0170295Y0201133D03*
X0170295Y0196133D03*
D26*
X0135627Y0234993D03*
X0135627Y0242473D03*
X0127163Y0238633D03*
D27*
X0175595Y0145933D03*
D28*
X0195280Y0145933D03*
D29*
X0153595Y0185933D03*
X0156595Y0190933D03*
X0120595Y0161933D03*
X0116595Y0157933D03*
X0110595Y0138933D03*
X0092595Y0171933D03*
X0123595Y0228933D03*
X0133595Y0227933D03*
X0155595Y0229933D03*
X0165595Y0246933D03*
X0165595Y0260933D03*
X0182595Y0255933D03*
X0218595Y0226933D03*
X0106595Y0236933D03*
D30*
X0175595Y0244933D03*
D31*
X0146395Y0230233D03*
X0136395Y0231233D03*
X0149495Y0218433D03*
X0151595Y0169933D03*
X0095595Y0223933D03*
M02*
